<mxfile host="app.diagrams.net" modified="2023-11-20T09:35:04.452Z" agent="Mozilla/5.0 (Windows NT 10.0; Win64; x64; rv:109.0) Gecko/20100101 Firefox/119.0" version="22.1.3" etag="PDU7_k5r1-m1JH7F5dNO" type="github">
  <diagram name="Page-1" id="hi0fW2uh4YMLLDDsJF27">
    <mxGraphModel>
      <root>
        <mxCell id="0" />
        <mxCell id="1" parent="0" />
      </root>
    </mxGraphModel>
  </diagram>
</mxfile>
